# xmcd
#
# Track frame offsets:
#	150
#	10082
#	21602
#	31270
#	44300
#	55692
#	64980
#	76762
#	86360
#	97105
#	109395
#	119167
#	130497
#	142402
#	156122
#
# Disc length: 2245 seconds
#
# Revision: 1
# Processed by: cddbd v1.5PL3 Copyright (c) Steve Scherf et al.
# Submitted via: CDex 1.50Beta5
#
DISCID=d508c30f
DTITLE=Various Artist - Back To American Pops 1950
DYEAR=1900
DGENRE=Pop
TTITLE0=Bill Haley and The Comets/Rock Around The Clock
TTITLE1=Danny and The Juniors/At The Hop
TTITLE2=Little Richard/Long Tall Sally
TTITLE3=The Crests/Sixteen Candles
TTITLE4=Chuck Berry/Rock 'n' Roll Music
TTITLE5=Ritchie Valens/La Bamba
TTITLE6=The Platters/Only You
TTITLE7=The Diamonds/Little Darlin'
TTITLE8=Little Richard/Lucille
TTITLE9=Chuck Berry/Jhonny B Goode
TTITLE10=The Chordettes/Lollipop
TTITLE11=Bill Haley and The Comets/Shake,Rantle and Roll
TTITLE12=The Platters/Smoke Gets In Your Eyes
TTITLE13=The Orioles/Crying In The Chapel
TTITLE14=The Spaniels/Goodnight Sweetheart,Goodnight
EXTD=
EXTT0=
EXTT1=
EXTT2=
EXTT3=
EXTT4=
EXTT5=
EXTT6=
EXTT7=
EXTT8=
EXTT9=
EXTT10=
EXTT11=
EXTT12=
EXTT13=
EXTT14=
PLAYORDER=
